<?xml version="1.0" standalone="no"?>
<!DOCTYPE svg PUBLIC "-//W3C//DTD SVG 20010904//EN"
 "http://www.w3.org/TR/2001/REC-SVG-20010904/DTD/svg10.dtd">
<svg version="1.0" xmlns="http://www.w3.org/2000/svg"
 width="1323.000000pt" height="639.000000pt" viewBox="0 0 1323.000000 639.000000"
 preserveAspectRatio="xMidYMid meet">

<g transform="translate(0.000000,639.000000) scale(0.100000,-0.100000)"
fill="#000000" stroke="none">
<path d="M0 3195 l0 -3195 6615 0 6615 0 0 3195 0 3195 -6615 0 -6615 0 0
-3195z m6629 1044 c117 -56 240 -114 581 -274 184 -86 345 -163 358 -171 38
-24 24 -84 -20 -84 -10 0 -89 33 -176 74 -86 40 -231 108 -322 151 -91 42
-221 104 -290 137 -69 33 -146 68 -171 79 l-47 21 -128 -60 c-71 -33 -187 -88
-259 -122 -388 -185 -596 -280 -612 -280 -45 0 -59 59 -20 84 12 8 171 84 352
169 294 137 511 239 615 289 49 24 65 22 139 -13z m460 -1030 c117 -65 106
-209 -23 -308 -33 -25 -76 -60 -95 -77 l-34 -31 116 4 117 5 0 -66 0 -66 -230
0 c-262 0 -249 -5 -205 85 28 58 49 82 130 149 116 96 145 128 145 160 0 83
-106 90 -126 9 -7 -25 -8 -25 -81 -21 -40 3 -76 7 -79 11 -10 10 17 87 42 116
36 43 101 61 199 58 63 -3 90 -8 124 -28z m-2729 -79 l0 -100 90 0 89 0 3 98
3 97 88 3 87 3 0 -281 0 -280 -90 0 -90 0 0 110 0 110 -90 0 -90 0 0 -110 0
-110 -90 0 -90 0 0 273 c0 151 3 277 7 280 3 4 44 7 90 7 l83 0 0 -100z m940
40 l0 -60 -145 0 -145 0 0 -45 0 -45 135 0 136 0 -3 -57 -3 -58 -132 -3 -133
-3 0 -49 0 -49 148 -3 147 -3 3 -62 3 -63 -241 0 -240 0 0 280 0 280 235 0
235 0 0 -60z m270 -150 c0 -115 3 -210 8 -210 4 0 57 -1 117 -2 152 -2 145 2
145 -74 l0 -64 -220 0 -220 0 0 280 0 280 85 0 85 0 0 -210z m748 185 c102
-61 95 -252 -11 -307 -27 -13 -64 -20 -125 -23 l-87 -3 -3 -101 -3 -101 -84 0
-85 0 0 281 0 281 183 -4 c161 -3 186 -5 215 -23z m1640 -37 l3 -58 -131 0
-130 0 0 -50 0 -50 110 0 110 0 0 -55 0 -54 -107 -3 -108 -3 -3 -112 -3 -113
-89 0 -89 0 -1 263 c0 145 2 271 6 281 6 15 28 16 218 14 l211 -3 3 -57z m272
-218 l0 -280 -90 0 -90 0 0 280 0 280 90 0 90 0 0 -280z m323 191 l50 -84 43
79 c24 44 44 82 44 87 0 4 43 7 96 7 77 0 95 -3 91 -14 -3 -7 -39 -66 -81
-130 -42 -64 -76 -122 -76 -128 0 -6 41 -73 90 -150 50 -76 90 -139 90 -141 0
-1 -44 -1 -98 1 l-98 3 -50 84 c-27 47 -51 85 -54 85 -3 0 -28 -38 -55 -85
l-50 -85 -98 0 c-76 0 -96 3 -91 13 5 6 45 69 91 139 46 71 83 132 83 138 0 8
-136 224 -163 258 -8 10 9 12 89 10 l98 -3 49 -84z"/>
<path d="M6092 3053 l3 -58 38 -3 c55 -5 87 19 87 63 0 42 -20 55 -85 55 l-46
0 3 -57z"/>
</g>
</svg>
