<svg xmlns="http://www.w3.org/2000/svg" width="145" height="171.419" viewBox="0 0 145 171.419">
  <path id="path52" d="M568.782-649.151a56.661,56.661,0,0,1-40.19,16.647,56.66,56.66,0,0,1-40.19-16.647,56.661,56.661,0,0,1-16.647-40.19,56.838,56.838,0,0,1,31.938-51.107v-15.474a71.093,71.093,0,0,0-46.166,66.581,70.841,70.841,0,0,0,20.814,50.25l50.25,50.25,50.25-50.25a70.845,70.845,0,0,0,20.814-50.25,71.094,71.094,0,0,0-46.166-66.581v15.474a56.838,56.838,0,0,1,31.938,51.107,56.662,56.662,0,0,1-16.647,40.19" transform="translate(-457.527 760.26)" fill="#dedede" fill-rule="evenodd"/>
  <g id="Group_27" data-name="Group 27" transform="translate(46.183 0)">
    <path id="path120" d="M1884.577-2806.38a73.76,73.76,0,0,0-12.99-1.146,73.594,73.594,0,0,0-13.072,1.167l4.209,17.3a47.309,47.309,0,0,1,8.863-.832,47,47,0,0,1,8.769.822l4.221-17.307" transform="translate(-1846.663 2807.526)" fill="#0024ff" fill-rule="evenodd"/>
    <path id="path122" d="M1875.435-2598.3l-5.619-25.25a43.035,43.035,0,0,0-8.635-.866,44.088,44.088,0,0,0-8.717.868l-7.016,31.752,29.986-6.5" transform="translate(-1835.56 2646.687)" fill="#5169ff" fill-rule="evenodd"/>
    <path id="path124" d="M1849.2-2345.5l-4.155-18.68-32.561,7.059-4.543,20.569,41.259-8.948" transform="translate(-1803.689 2418.094)" fill="#788bff" fill-rule="evenodd"/>
    <path id="path126" d="M1779.636-2146.917l24.83,20.1,24.934-20.25-4.013-18.025-43.838,9.506-1.913,8.665" transform="translate(-1779.636 2243.212)" fill="#c3cbff" fill-rule="evenodd"/>
  </g>
</svg>
